<svg class="icon" viewBox="0 0 1024 1024" xmlns="http://www.w3.org/2000/svg" width="48" height="48"><path d="M85.944 501.737h181.932c3.974-60.868.206-191.848.89-284.483h-88.98c-24.834 54.57-48.12 99.355-94.048 116.81-39.553 15.035-53.4 7.997-69.625 5.99C36.175 342.52 105.16 92.175 138.932 47.208 174.442 0 233.392 0 233.392 0c-4.456 52.282-30.368 119.365-40.396 141.669h337.7l.295 75.586H348.147c-.664 91.31 3.406 222.286.112 284.483h210.998l-.937 76.415-213.328-1.235c-2.012 17.23-3.814 56.713-5.78 71.93 0 0 112.172 117.312 171.716 193.403v130.838c-63.498-84.636-195.962-242.53-195.962-242.53-79.793 202.496-191.095 275.527-191.095 275.527H.025s242.44-265.839 260.972-427.934H7.887l78.057-76.415zm513.212-364.866h422.678v763.557l-171.857.683-128.232 104.975-51.964-105.658h-70.625V136.87zm344.303 73.439H677.555v600.315h15.26l45.384 94.418 117.035-94.418h88.226V210.31z" fill="#1296db"/></svg>